<svg id="Layer_1" data-name="Layer 1" xmlns="http://www.w3.org/2000/svg" viewBox="0 0 2063.76 513.64"><defs><style>.cls-1,.cls-3{fill:#ffa501;}.cls-2,.cls-4{fill:#e6e6e6;}.cls-3{font-size:140px;font-family:PolenticalNeonBold, Polentical Neon;}.cls-4{font-size:268.6px;font-family:PolenticalNeonRegular, Polentical Neon;}</style></defs><text x="-14.5" y="-149.49"/><path class="cls-1" d="M418.38,381.5H269.13L194.51,510l74.62,128.5H418.38L493,510ZM398.06,604.28H289.19l-54.43-94.89,54.43-94.89H398.06l54.44,94.89Z" transform="translate(-14.5 -149.49)"/><path class="cls-2" d="M196.5,444.5l22-39-8-13H77.44L14.5,507.5l71,119h130l8-14-22-36h-6v7l-5,3h-84l-46-79q10.29-18.09,20.56-36.88,10.53-19.25,20.44-38.12h87Z" transform="translate(-14.5 -149.49)"/><text class="cls-3" transform="translate(85.72 402.35) scale(0.8 1)">R</text><text class="cls-4" transform="translate(509.5 454.62) scale(0.87 1)">RaportLink</text></svg>