<svg id="Layer_1" data-name="Layer 1" xmlns="http://www.w3.org/2000/svg" viewBox="0 0 2052.41 257"><defs><style>.cls-1{fill:#ffa501;}.cls-2{fill:#e6e6e6;}</style></defs><path class="cls-1" d="M418.38,381.5H269.13L194.51,510l74.62,128.5H418.38L493,510ZM398.06,604.28H289.19l-54.43-94.89,54.43-94.89H398.06l54.44,94.89Z" transform="translate(-14.5 -381.5)"/><path class="cls-2" d="M196.5,444.5l22-39-8-13H77.44L14.5,507.5l71,119h130l8-14-22-36h-6v7l-5,3h-84l-46-79q10.29-18.09,20.56-36.88,10.53-19.25,20.44-38.12h87Z" transform="translate(-14.5 -381.5)"/><path class="cls-1" d="M171.9,452.38l13.64,18.06v28.89l-8.18,10.83L185.54,521v32.5H163.71V528.22L158.25,521H131V499.33h27.28l5.46-7.22V481.27l-5.46-7.22H125.51V553.5H103.68V452.38Z" transform="translate(-14.5 -381.5)"/><path class="cls-2" d="M677.16,420.49l28.36,32.79v52.46l-17,19.68,17,19.67v59H682.83V551.65l-11.35-13.12H569.38V512.3h102.1l11.35-13.11V459.84l-11.35-13.12H558V604.11H535.34V420.49Z" transform="translate(-14.5 -381.5)"/><path class="cls-2" d="M728.21,571.32V551.65l28.36-32.79h85.09v26.23H762.24L750.9,558.21v6.55l11.34,13.12h79.42L853,564.76V499.19l-11.34-13.12H739.55l11.35-26.23h96.43l28.36,32.79v78.69l-28.36,32.79H756.57Z" transform="translate(-14.5 -381.5)"/><path class="cls-2" d="M1045.87,492.63V532l-28.36,32.79H932.42V538.53h79.41l11.35-13.11V499.19l-11.35-13.12H932.42l-11.35,13.12V604.11H898.38V492.63l28.37-32.79h90.76Z" transform="translate(-14.5 -381.5)"/><path class="cls-2" d="M1216,492.63v78.69l-28.36,32.79h-90.76l-28.36-32.79V492.63l28.36-32.79h90.76Zm-124.79,6.56v65.57l11.34,13.12H1182l11.34-13.12V499.19L1182,486.07h-79.42Z" transform="translate(-14.5 -381.5)"/><path class="cls-2" d="M1352.18,486.07h-79.41l-11.35,13.12V604.11h-22.69V492.63l28.36-32.79h73.75Z" transform="translate(-14.5 -381.5)"/><path class="cls-2" d="M1397.56,459.84V433.61l22.69-13.12v39.35h68.07v26.23h-68.07v78.69l11.35,13.12h56.72L1477,604.11h-51.06l-28.36-32.79V486.07h-22.69V459.84Z" transform="translate(-14.5 -381.5)"/><path class="cls-2" d="M1533.7,564.76l11.35,13.12h136.14l-11.35,26.23H1539.37L1511,571.32V420.49h22.69Z" transform="translate(-14.5 -381.5)"/><path class="cls-2" d="M1726.57,420.49v26.23h-22.69V420.49Zm0,52.47V604.11h-22.69V473Z" transform="translate(-14.5 -381.5)"/><path class="cls-2" d="M1772,499.19V604.11h-22.7V492.63l28.37-32.79h90.76l28.36,32.79V604.11h-22.69V499.19l-11.34-13.12h-79.42Z" transform="translate(-14.5 -381.5)"/><path class="cls-2" d="M1942.12,420.49V512.3h68.07L2042,459.84h24.95l-31.76,52.46h3.4l28.36,32.79v59h-22.69V551.65l-11.34-13.12h-90.76v65.58h-22.69V420.49Z" transform="translate(-14.5 -381.5)"/></svg>